<?xml version="1.0" standalone="no"?>
<!DOCTYPE svg PUBLIC "-//W3C//DTD SVG 20010904//EN"
 "http://www.w3.org/TR/2001/REC-SVG-20010904/DTD/svg10.dtd">
<svg version="1.0" xmlns="http://www.w3.org/2000/svg"
 width="108.000000pt" height="94.000000pt" viewBox="0 0 108.000000 94.000000"
 preserveAspectRatio="xMidYMid meet">

<g transform="translate(0.000000,94.000000) scale(0.100000,-0.100000)"
fill="#000000" stroke="none">
<path d="M0 470 l0 -470 540 0 540 0 0 470 0 470 -540 0 -540 0 0 -470z m572
313 c37 -41 58 -87 58 -130 l-1 -38 -18 54 c-10 29 -33 67 -51 85 l-31 31 -34
-39 c-46 -52 -52 -86 -26 -139 12 -23 15 -33 6 -23 -11 15 -15 16 -15 5 -1
-30 -29 38 -30 71 0 38 15 66 63 118 38 39 46 40 79 5z m-201 -29 l24 -27 -27
18 c-34 21 -58 14 -59 -17 0 -13 -3 -17 -6 -10 -3 7 -2 24 1 37 8 33 36 32 67
-1z m385 1 c3 -13 4 -30 1 -37 -3 -7 -6 -3 -6 10 -1 31 -25 38 -59 17 l-27
-18 24 27 c31 33 59 34 67 1z m-198 -86 c4 -30 -22 -46 -44 -28 -17 14 -18 31
-2 47 19 19 43 9 46 -19z m-203 -57 l27 -21 -46 4 c-25 2 -56 7 -68 11 -20 6
-21 5 -9 -10 12 -14 12 -16 -3 -10 -9 3 -16 17 -16 31 0 24 2 25 44 21 25 -3
57 -15 71 -26z m465 9 c0 -11 -11 -32 -25 -47 -14 -15 -25 -22 -25 -16 0 6 8
16 18 21 13 8 14 11 2 12 -8 0 -27 2 -42 3 -16 1 -28 -1 -28 -4 0 -3 -14 -11
-31 -17 -30 -12 -30 -11 -17 9 34 51 148 80 148 39z"/>
</g>
</svg>
